<?xml version="1.0" encoding="UTF-8" standalone="no"?>
<!DOCTYPE svg PUBLIC "-//W3C//DTD SVG 1.1//EN" "http://www.w3.org/Graphics/SVG/1.1/DTD/svg11.dtd">
<svg width="100%" height="100%" viewBox="0 0 1098 695" version="1.1" xmlns="http://www.w3.org/2000/svg" xmlns:xlink="http://www.w3.org/1999/xlink" xml:space="preserve" xmlns:serif="http://www.serif.com/" style="fill-rule:evenodd;clip-rule:evenodd;stroke-miterlimit:10;">
    <g transform="matrix(1,0,0,1,-51.21,-102.69)">
        <path d="M671.6,111.52C673.1,110.65 675.13,111.52 676.16,112.87C677.076,114.354 677.615,116.04 677.73,117.78C678.3,121.58 678.73,125.94 676.16,128.78C680.633,115.852 692.131,106.565 705.71,104.91" style="fill:none;fill-rule:nonzero;stroke:rgb(108,99,255);stroke-opacity:0.1;stroke-width:3px;"/>
    </g>
    <g transform="matrix(1,0,0,1,-51.21,-102.69)">
        <path d="M843.6,296.52C845.1,295.65 847.13,296.52 848.16,297.87C849.076,299.354 849.615,301.04 849.73,302.78C850.3,306.58 850.73,310.94 848.16,313.78C852.633,300.852 864.131,291.565 877.71,289.91" style="fill:none;fill-rule:nonzero;stroke:rgb(108,99,255);stroke-opacity:0.1;stroke-width:3px;"/>
    </g>
    <g transform="matrix(1,0,0,1,-51.21,-102.69)">
        <path d="M598.39,167.68C594.11,171.26 591.09,175.85 586.39,179.08C580.73,182.98 573.3,184.46 566.39,186.55C559.48,188.64 552.39,191.92 549.61,197.61C547.25,202.48 548.61,208.13 546.61,213.11C544.46,218.4 538.88,222.11 534.61,226.38C526.17,234.8 522.42,246.38 524.61,257.18C526.12,264.65 530.25,271.55 532.7,278.84C535.7,287.76 536.12,297.11 536.54,306.36C537.32,323.73 538.09,341.27 534.18,358.36C533.18,362.65 530.48,427.88 525.25,427.75C539.13,426.56 553.09,426.43 567.04,426.29L776.04,424.29C766.41,411.69 760.26,337.23 758.22,322.38C754.7,296.78 763.22,271.15 764.22,245.38C764.36,242.06 764.36,238.65 762.99,235.53C761.55,232.26 758.67,229.47 757.71,226.08C756.33,221.23 759.1,216.26 759.19,211.28C759.37,201.28 749.19,193.61 741.12,186.2C733.34,179.07 726.87,170.97 718.84,164.02C710.81,157.07 700.72,151.18 689.24,150.11C679.81,149.24 670.44,151.69 661.41,154.11C650.64,156.99 640.41,160.63 628.98,160.45C616.37,160.23 608.6,161.28 598.39,167.68Z" style="fill:rgb(47,46,65);fill-rule:nonzero;"/>
    </g>
    <g opacity="0.1">
        <g transform="matrix(1,0,0,1,-51.21,-102.69)">
            <path d="M742.35,207.07C742.641,208.164 743.064,209.218 743.61,210.21C743.475,207.96 742.93,205.753 742,203.7C741.957,204.834 742.075,205.969 742.35,207.07Z" style="fill-rule:nonzero;"/>
        </g>
        <g transform="matrix(1,0,0,1,-51.21,-102.69)">
            <path d="M539.66,367.64L538.5,367.74C538.889,367.748 539.278,367.715 539.66,367.64Z" style="fill-rule:nonzero;"/>
        </g>
    </g>
    <g transform="matrix(1,0,0,1,-51.21,-102.69)">
        <path d="M756.69,728C755.415,728.988 753.893,729.607 752.29,729.79C726.72,735.04 700.92,739.52 674.85,740.94C651.85,742.2 628.78,741.07 605.77,739.94C582.76,738.81 559.77,737.67 537.31,733.02C546.616,714.282 552.476,694.022 554.61,673.21C555.555,664.075 555.785,654.881 555.3,645.71C555.226,644.607 555.092,643.509 554.9,642.42C553.83,635.84 551.19,626.31 553.59,621.55C556.67,615.43 568.5,615.23 574.28,614.09C584.1,612.16 593.97,610.55 603.88,609.2C643.21,603.85 682.94,602.63 722.57,601.44C727.89,601.28 734.23,601.64 737,606.19C738.55,608.74 738.47,611.92 738.39,614.91C738.21,621.383 738.273,627.857 738.58,634.33C739.97,663.033 746.114,691.308 756.76,718C758.08,721.27 759.29,725.55 756.69,728Z" style="fill:rgb(251,190,190);fill-rule:nonzero;"/>
    </g>
    <g transform="matrix(1,0,0,1,-51.21,-102.69)">
        <path d="M601.09,371.89C596.91,377.04 591.02,380.5 585.09,383.54C578.006,387.2 570.71,390.432 563.24,393.22C561.73,395.51 562.93,398.55 564.24,400.99C575.97,423.77 591.67,446.41 615.35,456.2C627.5,461.2 640.83,462.45 653.93,463.62C658.01,463.98 662.17,464.34 666.15,463.36C670.13,462.38 673.83,460.01 677.15,457.5C698.838,441.088 713.135,416.709 716.87,389.77C717.19,387.38 717.19,384.45 715.14,383.17C713.89,382.4 712.3,382.55 710.83,382.56C701.24,382.66 692.74,375.56 688.31,367.07C683.88,358.58 682.7,348.79 681.61,339.26C681.61,339.05 625.23,337.86 620.14,337.82C612.2,337.75 609.58,338.68 608.81,346.82C608,355.8 607,364.57 601.09,371.89Z" style="fill:rgb(251,190,190);fill-rule:nonzero;"/>
    </g>
    <g transform="matrix(1,0,0,1,-51.21,-102.69)">
        <path d="M601.09,371.89C596.91,377.04 591.02,380.5 585.09,383.54C578.006,387.2 570.71,390.432 563.24,393.22C561.73,395.51 562.93,398.55 564.24,400.99C575.97,423.77 591.67,446.41 615.35,456.2C627.5,461.2 640.83,462.45 653.93,463.62C658.01,463.98 662.17,464.34 666.15,463.36C670.13,462.38 673.83,460.01 677.15,457.5C698.838,441.088 713.135,416.709 716.87,389.77C717.19,387.38 717.19,384.45 715.14,383.17C713.89,382.4 712.3,382.55 710.83,382.56C701.24,382.66 692.74,375.56 688.31,367.07C683.88,358.58 682.7,348.79 681.61,339.26C681.61,339.05 625.23,337.86 620.14,337.82C612.2,337.75 609.58,338.68 608.81,346.82C608,355.8 607,364.57 601.09,371.89Z" style="fill-opacity:0.1;fill-rule:nonzero;"/>
    </g>
    <circle cx="594.69" cy="181.55" r="77" style="fill:rgb(251,190,190);"/>
    <g transform="matrix(1,0,0,1,-51.21,-103.888)">
        <path d="M702.37,375.53C703.22,386.33 587.15,396.44 582.77,383.12C580.17,386.19 575.4,386.44 571.6,385.12C567.8,383.8 564.6,381.26 561,379.39C555,376.26 548.24,375.1 541.59,373.97C530.76,372.14 518.18,370.8 510.16,378.31C507.39,380.9 505.5,384.31 502.72,386.91C497.86,391.43 490.99,392.84 484.72,394.91C475.67,397.91 467.33,402.71 458.78,406.91C438.816,416.74 417.531,423.618 395.59,427.33C390.92,428.12 386.22,428.76 381.59,429.87C375.09,431.43 368.59,434.1 364.16,439.11C369.34,445.73 376.78,449.34 384.77,451.95L461.87,477.15C473.47,480.94 485.25,484.81 495.4,491.6C512.31,502.88 523.31,521.42 529.33,540.83C535.35,560.24 536.9,580.72 538.4,600.99C539.05,609.8 536.019,618.4 536.18,627.15C536.532,646.306 522.634,718.633 540.513,715.927C544.388,718.721 547.229,718.855 552.141,721.547C558.589,725.083 567.547,728.49 579.426,731.827C602.471,738.303 633.776,741.189 642.9,741.273C652.4,741.368 696.185,735.289 714.067,730.269C731.949,725.249 727.928,724.622 736.293,721.287C739.987,719.814 755.517,715.058 756.824,708.358C761.771,683.007 754.421,638.68 753.14,621.42C752.718,615.737 749.27,610.42 749.14,604.8L748.74,578.17C748.562,574.956 748.776,571.732 749.38,568.57C750.72,562.87 754.49,558.09 756.9,552.76C761.55,542.47 760.9,530.71 761.16,519.42C761.42,508.13 763,496 770.63,487.74C775.63,482.35 782.63,479.29 789.73,477.4C801.87,474.16 814.57,473.95 827.11,473.06C867.993,470.129 907.991,459.712 945.11,442.33C942.89,437.64 937.73,434.98 933.02,432.8C921.88,427.65 910.08,422.37 897.86,423.52C891.95,424.08 886.1,426.14 880.21,425.39C874.63,424.67 869.69,421.51 864.27,420C860.16,418.86 855.86,418.69 851.64,418.05C841.9,416.56 832.76,412.55 823.75,408.58L800.99,398.58C794.99,395.93 788.74,393.1 784.62,387.98C783.28,386.31 782.2,384.43 780.74,382.86C778.23,380.17 774.74,378.58 771.25,377.47C766.865,375.944 762.191,375.431 757.58,375.97C754.417,376.598 751.295,377.416 748.23,378.42C733.19,382.48 717.67,378.26 702.37,375.53Z" style="fill:rgb(238,66,102);fill-rule:nonzero;"/>
    </g>
    <g transform="matrix(1,0,0,1,-51.21,-102.69)">
        <path d="M790.44,778.28C749.453,788.133 707.703,794.49 665.64,797.28L559.9,797.28C541,795.993 522.373,794.027 504.02,791.38C509.436,775.259 516.9,759.899 526.23,745.68C527.723,743.668 528.89,741.434 529.69,739.06C530.13,736.85 530.354,734.603 530.36,732.35C530.847,725.45 533.524,718.883 538,713.61C540.08,714.743 542.18,715.833 544.3,716.88C568.318,728.81 594.476,735.831 621.24,737.53C635.319,738.252 649.431,737.968 663.47,736.68C695.13,734.13 728.05,728.25 753.55,709.58C754.62,708.8 755.68,707.99 756.73,707.16C769.12,718.16 776.29,735.02 781.42,750.78C784.47,760 787.29,769.2 790.44,778.28Z" style="fill:rgb(47,46,65);fill-rule:nonzero;"/>
    </g>
    <g transform="matrix(1,0,0,1,-51.21,-102.69)">
        <path d="M601.73,391.4C605.61,389.28 609.8,387.4 614.22,387.34C620.86,387.28 626.8,391.34 631.72,395.82C636.268,399.928 640.383,404.492 644,409.44C645.8,411.89 647.52,414.58 647.79,417.61C648.06,420.64 646.4,424.05 643.44,424.77C641.571,425.085 639.65,424.697 638.05,423.68C631.21,419.92 626.14,411.31 618.38,412.15C613.06,412.72 609.46,417.67 606.55,422.15C603.96,426.15 601.34,430.26 600.18,434.88C599.02,439.5 599.58,444.88 602.8,448.36C605.3,451.09 608.95,452.36 612.36,453.78C619.902,456.902 626.807,461.383 632.73,467C635.6,469.74 638.33,473 638.73,477C639.13,481 636.1,485.4 632.14,485.12C630.355,484.841 628.671,484.107 627.25,482.99C620.09,478.26 612.78,473.3 604.38,471.56C595.83,469.79 587,471.56 578.38,472.88C568.927,474.293 559.427,475.3 549.88,475.9C547.047,476.225 544.178,476.039 541.41,475.35C531.97,472.43 529.22,460.42 530.32,451.74C531.49,442.46 538.32,440.35 545.46,435.74C565.54,422.6 580.44,403 601.73,391.4Z" style="fill:rgb(251,190,190);fill-rule:nonzero;"/>
    </g>
    <g transform="matrix(1,0,0,1,-51.21,-102.69)">
        <path d="M675.7,391.4C671.81,389.28 667.63,387.4 663.2,387.34C656.56,387.28 650.62,391.34 645.7,395.82C641.155,399.929 637.044,404.493 633.43,409.44C631.64,411.89 629.92,414.58 629.65,417.61C629.38,420.64 631.03,424.05 633.99,424.77C635.862,425.085 637.786,424.697 639.39,423.68C646.23,419.92 651.3,411.31 659.05,412.15C664.38,412.72 667.98,417.67 670.88,422.15C673.47,426.15 676.1,430.26 677.25,434.88C678.4,439.5 677.85,444.88 674.63,448.36C672.14,451.09 668.48,452.36 665.07,453.78C657.525,456.903 650.617,461.384 644.69,467C641.82,469.74 639.1,473 638.69,477C638.28,481 641.32,485.4 645.28,485.12C647.066,484.842 648.75,484.109 650.17,482.99C657.33,478.26 664.64,473.3 673.04,471.56C681.59,469.79 690.42,471.56 699.04,472.88C708.47,474.36 717.98,475.39 727.51,475.96C730.347,476.285 733.219,476.099 735.99,475.41C745.42,472.49 748.17,460.48 747.08,451.8C745.9,442.52 739.08,440.41 731.93,435.8C711.89,422.6 697,403 675.7,391.4Z" style="fill:rgb(251,190,190);fill-rule:nonzero;"/>
    </g>
    <g transform="matrix(1,0,0,1,-51.21,-102.69)">
        <path d="M592.66,256.42C597.14,249.34 602.46,241.66 609.73,240.84C619.88,239.69 627.81,252.38 637.91,254.02C650.91,256.14 663.69,239.5 675.91,245.58C681.91,248.58 686.39,256.9 692.91,256.74C697.42,256.64 701.09,252.41 704.08,248.26C709.126,241.263 713.591,233.865 717.43,226.14C705.02,211.91 686.97,208.66 670.12,206.07L641.79,201.72C634.97,200.67 628.03,199.63 621.25,201.08C615.12,202.39 609.4,205.69 603.85,209.16C597.23,213.32 581.66,220 577.6,227.74C574.77,233.11 578.66,235.61 582.31,241.02C585.743,246.153 589.193,251.287 592.66,256.42Z" style="fill:rgb(47,46,65);fill-rule:nonzero;"/>
    </g>
    <g transform="matrix(1,0,0,1,-51.21,-102.69)">
        <path d="M549.75,430.22C537.461,432.674 524.912,433.567 512.4,432.88C507.49,432.62 502.56,432.11 497.67,432.57C491.77,433.13 486.1,435.08 480.35,436.5C450.56,443.83 419.43,436.67 389.02,432.65C383.65,431.94 378.16,431.33 372.84,432.37C367.97,433.32 363.47,435.6 359.16,438.05C352.177,442.021 345.492,446.496 339.16,451.44C332.53,456.62 325.84,463.22 325.38,471.61C324.98,478.83 329.38,485.48 334.71,490.39C349.11,503.72 370.49,507.73 389.77,504.12C397.1,502.75 404.25,500.39 411.66,499.57C419.25,498.73 426.92,499.57 434.55,499.21C450.05,498.52 464.89,493.13 479.94,489.38C503.442,483.528 527.753,481.622 551.88,483.74C551.686,483.824 551.476,483.868 551.264,483.868C550.539,483.868 549.906,483.358 549.75,482.65C547.98,477.77 547.89,472.46 547.92,467.27C548,454.68 548.59,442.76 549.75,430.22Z" style="fill-opacity:0.1;fill-rule:nonzero;"/>
    </g>
    <g transform="matrix(1,0,0,1,-51.21,-102.69)">
        <path d="M547.75,431.22C535.461,433.674 522.912,434.567 510.4,433.88C505.49,433.62 500.56,433.11 495.67,433.57C489.77,434.13 484.1,436.08 478.35,437.5C448.56,444.83 417.43,437.67 387.02,433.65C381.65,432.94 376.16,432.33 370.84,433.37C365.97,434.32 361.47,436.6 357.16,439.05C350.177,443.021 343.492,447.496 337.16,452.44C330.53,457.62 323.84,464.22 323.38,472.61C322.98,479.83 327.38,486.48 332.71,491.39C347.11,504.72 368.49,508.73 387.77,505.12C395.1,503.75 402.25,501.39 409.66,500.57C417.25,499.73 424.92,500.57 432.55,500.21C448.05,499.52 462.89,494.13 477.94,490.38C501.442,484.528 525.753,482.622 549.88,484.74C549.686,484.824 549.476,484.868 549.264,484.868C548.539,484.868 547.906,484.358 547.75,483.65C545.98,478.77 545.89,473.46 545.92,468.27C546,455.68 546.59,443.76 547.75,431.22Z" style="fill:rgb(238,66,102);fill-rule:nonzero;"/>
    </g>
    <g transform="matrix(1,0,0,1,-51.21,-102.69)">
        <path d="M730,424.87C745.24,428.34 781.92,429.87 797.54,429.35C804.67,429.13 811.78,428.49 818.91,428.51C831.13,428.51 843.33,430.51 855.52,429.7C871.27,428.62 886.74,422.83 902.45,424.32C910.17,425.06 917.6,427.52 924.96,429.98C932.32,432.44 940.34,435.22 945.52,441.2C950.32,446.74 952.07,454.2 953.66,461.36C954.55,465.36 955.44,469.49 954.66,473.5C953.17,481.11 946.16,486.26 939.43,490.1C931.43,494.66 922.65,498.58 913.43,498.37C907.96,498.25 902.64,496.67 897.43,495.03C882.5,490.34 867.24,485.03 851.64,486.2C840.73,487.04 829.83,491.06 819.1,488.89C812.79,487.61 807.1,484.27 801.1,482.05C786.48,476.7 749.37,478.12 733.87,479.6C734.77,470.89 734.66,462.11 735.56,453.39C736.26,446.72 736.93,439.81 734.79,433.45C733.45,429.64 733,427.57 730,424.87Z" style="fill-opacity:0.1;fill-rule:nonzero;"/>
    </g>
    <g transform="matrix(1,0,0,1,-51.21,-102.69)">
        <path d="M731,426.87C746.24,430.34 782.92,431.87 798.54,431.35C805.67,431.13 812.78,430.49 819.91,430.51C832.13,430.51 844.33,432.51 856.52,431.7C872.27,430.62 887.74,424.83 903.45,426.32C911.17,427.06 918.6,429.52 925.96,431.98C933.32,434.44 941.34,437.22 946.52,443.2C951.32,448.74 953.07,456.2 954.66,463.36C955.55,467.36 956.44,471.49 955.66,475.5C954.17,483.11 947.16,488.26 940.43,492.1C932.43,496.66 923.65,500.58 914.43,500.37C908.96,500.25 903.64,498.67 898.43,497.03C883.5,492.34 868.24,487.03 852.64,488.2C841.73,489.04 830.83,493.06 820.1,490.89C813.79,489.61 808.1,486.27 802.1,484.05C787.48,478.7 750.37,480.12 734.87,481.6C735.77,472.89 735.66,464.11 736.56,455.39C737.26,448.72 737.93,441.81 735.79,435.45C734.45,431.64 734,429.57 731,426.87Z" style="fill:rgb(238,66,102);fill-rule:nonzero;"/>
    </g>
    <g transform="matrix(1,0,0,1,-51.21,-102.69)">
        <path d="M572.11,274.59C569.77,273.98 568.87,271.02 566.76,269.83C564.65,268.64 562.01,269.58 560.49,271.35C559.078,273.223 558.313,275.505 558.31,277.85C557.926,288.189 564.11,297.713 573.71,301.57C571.619,292.467 570.811,283.117 571.31,273.79L572.11,274.59Z" style="fill:rgb(251,190,190);fill-rule:nonzero;"/>
    </g>
    <g transform="matrix(1,0,0,1,-51.21,-102.69)">
        <path d="M719.68,274.59C722.02,273.98 722.91,271.02 725.02,269.83C727.13,268.64 729.77,269.58 731.29,271.35C732.706,273.22 733.472,275.504 733.47,277.85C733.854,288.189 727.67,297.713 718.07,301.57C720.161,292.467 720.969,283.117 720.47,273.79L719.68,274.59Z" style="fill:rgb(251,190,190);fill-rule:nonzero;"/>
    </g>
    <g opacity="0.1">
        <g transform="matrix(1,0,0,1,-51.21,-102.69)">
            <path d="M623.83,496.34C625.737,503.311 626.662,510.514 626.58,517.74C626.58,530.31 624.11,541.28 620.43,547.17C620.12,549.97 619.77,552.75 619.43,555.48C624.62,551.48 628.43,538.34 628.43,522.74C628.39,512.08 626.61,502.57 623.83,496.34Z" style="fill-rule:nonzero;"/>
        </g>
    </g>
    <g opacity="0.1">
        <g transform="matrix(1,0,0,1,-51.21,-102.69)">
            <path d="M652,496.34C650.09,503.31 649.161,510.513 649.24,517.74C649.24,530.31 651.72,541.28 655.4,547.17C655.71,549.97 656.05,552.75 656.4,555.48C651.21,551.48 647.4,538.34 647.4,522.74C647.39,512.08 649.17,502.57 652,496.34Z" style="fill-rule:nonzero;"/>
        </g>
    </g>
    <g transform="matrix(1,0,0,1,-51.21,-102.69)">
        <path d="M704,243.26C701,247.41 697.34,251.64 692.83,251.74C686.3,251.9 681.83,243.6 675.83,240.58C663.66,234.5 650.91,251.14 637.83,249.02C627.73,247.38 619.83,234.69 609.65,235.84C602.38,236.66 597.06,244.34 592.58,251.42C589.113,246.293 585.65,241.16 582.19,236.02C580.19,233.02 578.02,230.87 577.05,228.65C575.11,233.41 578.75,235.93 582.19,241.02C585.63,246.11 589.11,251.29 592.58,256.42C597.06,249.34 602.38,241.66 609.65,240.84C619.8,239.69 627.73,252.38 637.83,254.02C650.83,256.14 663.61,239.5 675.83,245.58C681.83,248.58 686.31,256.9 692.83,256.74C697.34,256.64 701.01,252.41 704,248.26C709.046,241.263 713.511,233.865 717.35,226.14C716.81,225.52 716.25,224.92 715.68,224.34C712.231,230.91 708.328,237.232 704,243.26Z" style="fill-opacity:0.1;fill-rule:nonzero;"/>
    </g>
    <g transform="matrix(1.95983,-0.872578,0.872578,1.95983,-751.86,177.346)">
        <path d="M596.481,275.436C596.481,275.436 596.481,275.436 596.481,275.436C596.166,275.436 595.907,275.177 595.907,274.863C595.907,274.688 595.986,274.523 596.122,274.414L607.595,265.236C607.697,265.153 607.825,265.108 607.957,265.108C608.272,265.108 608.531,265.367 608.531,265.682C608.531,265.857 608.45,266.024 608.312,266.132L596.839,275.311C596.738,275.392 596.611,275.436 596.481,275.436Z" style="fill:rgb(59,206,172);fill-rule:nonzero;"/>
    </g>
    <g transform="matrix(-2.07014,-0.562882,-0.562882,2.07014,1927.02,-38.9732)">
        <path d="M596.481,275.436C596.481,275.436 596.481,275.436 596.481,275.436C596.166,275.436 595.907,275.177 595.907,274.863C595.907,274.688 595.986,274.523 596.122,274.414L607.595,265.236C607.697,265.153 607.825,265.108 607.957,265.108C608.272,265.108 608.531,265.367 608.531,265.682C608.531,265.857 608.45,266.024 608.312,266.132L596.839,275.311C596.738,275.392 596.611,275.436 596.481,275.436Z" style="fill:rgb(59,206,172);fill-rule:nonzero;"/>
    </g>
    <g transform="matrix(4.00224,0,0,3.93559,-1728.68,-891.107)">
        <path d="M596.272,284.02C596.02,284.33 593.58,287.279 592.033,288.433C590.528,289.555 589.395,290.045 586.991,290.942C584.39,291.912 581.41,292.118 579.744,292.118C575.229,292.118 572.26,290.695 568.678,288.33C567.586,287.61 565.7,285.687 565.67,284.51C565.63,282.933 566.55,281.196 566.537,279.727C566.519,277.536 565.943,277.237 565.34,274.553C565.34,274.553 575.452,273.852 580.517,273.722C585.885,273.583 597.549,273.722 597.549,273.722C596.111,275.981 595.965,278.087 595.773,279.614C595.558,281.318 595.714,282.652 596.272,284.02Z" style="fill:rgb(59,206,172);fill-rule:nonzero;"/>
    </g>
</svg>
